<svg width="23" height="39" viewBox="0 0 23 39" fill="none" xmlns="http://www.w3.org/2000/svg">
<path d="M17.9192 37.7261L1.06867 21.2932C0.462228 20.7102 0.180664 20.0624 0.180664 19.3066C0.180664 18.5508 0.483887 17.8598 1.06867 17.2984L17.9192 0.887066C18.4173 0.412003 19.0021 0.152878 19.7169 0.152878C21.168 0.152878 22.2943 1.27576 22.2943 2.70095C22.2943 3.39195 22.0127 4.06136 21.5145 4.55801L6.33175 19.285L21.5145 34.0552C22.0127 34.5518 22.2943 35.1996 22.2943 35.9122C22.2943 37.3374 21.168 38.4603 19.7169 38.4603C19.0238 38.4603 18.4173 38.2012 17.9192 37.7261Z" fill="#1C1C1E"/>
</svg>
