<svg width="10" height="17" viewBox="0 0 10 17" fill="none" xmlns="http://www.w3.org/2000/svg">
<path d="M9.23158 8.6543C9.22309 8.34668 9.11265 8.08301 8.88328 7.8457L2.27411 1.15723C2.07872 0.963867 1.84936 0.858398 1.56902 0.858398C0.99985 0.858398 0.558105 1.31543 0.558105 1.9043C0.558105 2.18555 0.668541 2.44922 0.863928 2.65137L6.81048 8.6543L0.863928 14.6572C0.668541 14.8594 0.558105 15.1143 0.558105 15.4043C0.558105 15.9932 0.99985 16.4502 1.56902 16.4502C1.84086 16.4502 2.07872 16.3447 2.27411 16.1514L8.88328 9.4541C9.12115 9.22558 9.23158 8.96191 9.23158 8.6543Z" fill="#1C1C1E"/>
</svg>
