<svg width="20" height="20" viewBox="0 0 20 20" fill="none" xmlns="http://www.w3.org/2000/svg">
<path d="M7.75956 20C8.54645 20 9.22404 19.6218 9.68306 18.8877L19.4536 3.33704C19.7377 2.86986 20 2.33593 20 1.8465C20 0.734149 19.0382 0 18.0109 0C17.3552 0 16.765 0.378198 16.306 1.11235L7.61141 14.5544L3.60656 9.94438C3.08197 9.25473 2.55738 9.01001 1.90164 9.01001C0.830601 9.01001 0 9.89989 0 10.99C0 11.5239 0.196721 12.0133 0.568306 12.4805L5.72678 18.9099C6.31694 19.6663 6.95082 20 7.75956 20Z" fill="white"/>
</svg>
