<svg width="49" height="48" viewBox="0 0 49 48" fill="none" xmlns="http://www.w3.org/2000/svg">
<path d="M22.2906 47.3616H26.6873C28.485 47.3616 29.8928 46.2354 30.326 44.5026L31.1923 40.7124L31.7555 40.4958L35.0693 42.5534C36.5854 43.5063 38.3831 43.2464 39.6609 41.9686L42.6931 38.9363C43.9927 37.6368 44.2093 35.8608 43.2563 34.3663L41.1987 31.0526L41.4153 30.5327L45.2056 29.6447C46.9166 29.2116 48.0429 27.8037 48.0429 26.0061V21.7393C48.0429 19.9416 46.9383 18.5338 45.2056 18.1006L41.4369 17.191L41.2204 16.6278L43.2779 13.3357C44.2309 11.8412 44.0143 10.0652 42.7148 8.74404L39.6826 5.71181C38.4264 4.43394 36.6287 4.1957 35.1126 5.12702L31.7988 7.16295L31.1923 6.94636L30.326 3.13442C29.8928 1.40172 28.485 0.297119 26.6873 0.297119H22.2906C20.4713 0.297119 19.0634 1.40172 18.6519 3.13442L17.7856 6.94636L17.1791 7.16295L13.8653 5.12702C12.3276 4.1957 10.5515 4.43394 9.29534 5.71181L6.24146 8.74404C4.96359 10.0652 4.72534 11.8412 5.67833 13.3357L7.73591 16.6278L7.51932 17.191L3.77236 18.1006C2.03966 18.5338 0.935059 19.9416 0.935059 21.7393V26.0061C0.935059 27.8037 2.06131 29.2116 3.77236 29.6447L7.56264 30.5327L7.75757 31.0526L5.69999 34.3663C4.747 35.8608 4.98525 37.6368 6.26311 38.9363L9.317 41.9686C10.5732 43.2464 12.3709 43.5063 13.887 42.5534L17.2008 40.4958L17.7856 40.7124L18.6519 44.5026C19.0634 46.2354 20.4713 47.3616 22.2906 47.3616ZM22.8537 43.3764C22.4855 43.3764 22.2906 43.2248 22.2473 42.8999L20.9478 37.5718C19.5833 37.247 18.2621 36.6838 17.2008 36.0124L12.5225 38.893C12.2409 39.0663 11.981 39.0446 11.7211 38.7847L9.44695 36.5106C9.18705 36.2723 9.18705 36.0124 9.36032 35.7309L12.2409 31.0526C11.6345 30.0129 11.0714 28.7134 10.7465 27.3489L5.39676 26.071C5.07188 26.0277 4.89861 25.8328 4.89861 25.4646V22.2591C4.89861 21.8692 5.05022 21.7176 5.39676 21.631L10.7248 20.3748C11.0497 18.9237 11.6778 17.5808 12.2193 16.6062L9.33866 11.9712C9.16539 11.668 9.16539 11.4081 9.40363 11.1482L11.6995 8.89565C11.9594 8.6574 12.1976 8.61408 12.5225 8.80901L17.1575 11.6463C18.1321 11.0399 19.5833 10.4334 20.9694 10.0869L22.2473 4.75882C22.2906 4.43394 22.4855 4.26067 22.8537 4.26067H26.1242C26.4924 4.26067 26.6657 4.41228 26.7306 4.75882L28.0302 10.1085C29.438 10.4551 30.7159 11.0399 31.7988 11.6463L36.4338 8.80901C36.7586 8.63574 36.9969 8.6574 37.2568 8.91731L39.5526 11.1698C39.8125 11.4081 39.8125 11.668 39.6176 11.9712L36.7586 16.6062C37.2785 17.5808 37.9282 18.9237 38.2531 20.3748L43.5812 21.631C43.9277 21.7176 44.0577 21.8692 44.0577 22.2591V25.4646C44.0577 25.8328 43.906 26.0277 43.5812 26.071L38.2314 27.3489C37.9066 28.7134 37.3218 30.0346 36.7153 31.0526L39.5959 35.7092C39.7692 36.0124 39.7692 36.2507 39.5093 36.4889L37.2351 38.7847C36.9752 39.0446 36.7153 39.0663 36.4338 38.893L31.7771 36.0124C30.6942 36.6838 29.4596 37.2253 28.0302 37.5718L26.7306 42.8999C26.6657 43.2248 26.4924 43.3764 26.1242 43.3764H22.8537ZM24.4998 32.0489C29.0048 32.0489 32.7085 28.3452 32.7085 23.8185C32.7085 19.3352 29.0048 15.6315 24.4998 15.6315C19.9731 15.6315 16.2478 19.3352 16.2478 23.8185C16.2478 28.3452 19.9731 32.0489 24.4998 32.0489ZM24.4998 28.3019C22.0307 28.3019 20.0164 26.2876 20.0164 23.8185C20.0164 21.3928 22.0523 19.3785 24.4998 19.3785C26.9039 19.3785 28.9182 21.3928 28.9182 23.8185C28.9182 26.266 26.9039 28.3019 24.4998 28.3019Z" fill="#1C1C1E"/>
</svg>
