<svg width="53" height="48" viewBox="0 0 53 48" fill="none" xmlns="http://www.w3.org/2000/svg">
<path d="M0.0112305 22.5652C0.0112305 23.6914 0.877581 24.6661 2.26374 24.6661C2.93516 24.6661 3.54161 24.2979 4.08308 23.8647L6.55218 21.7855V41.9281C6.55218 45.1336 8.47981 47.0396 11.7936 47.0396H41.0979C44.39 47.0396 46.3393 45.1336 46.3393 41.9281V21.6772L48.9384 23.8647C49.4582 24.2979 50.0646 24.6661 50.736 24.6661C52.0139 24.6661 52.9886 23.8647 52.9886 22.6085C52.9886 21.8721 52.707 21.2873 52.1439 20.8108L46.3393 15.9159V6.68931C46.3393 5.71466 45.7112 5.10822 44.7366 5.10822H41.7477C40.7947 5.10822 40.1449 5.71466 40.1449 6.68931V10.7178L29.5971 1.8594C27.7128 0.278312 25.3303 0.278312 23.446 1.8594L0.877581 20.8108C0.292794 21.2873 0.0112305 21.9371 0.0112305 22.5652ZM32.7376 28.543C32.7376 27.525 32.0879 26.8753 31.0699 26.8753H21.9732C20.9553 26.8753 20.2838 27.525 20.2838 28.543V42.7295H12.9415C11.5987 42.7295 10.8623 41.9714 10.8623 40.6069V18.1684L25.5686 5.82295C26.175 5.30314 26.8681 5.30314 27.4745 5.82295L42.0076 18.0385V40.6069C42.0076 41.9714 41.2712 42.7295 39.9283 42.7295H32.7376V28.543Z" fill="#1C1C1E"/>
</svg>
