<svg width="35" height="25" viewBox="0 0 35 25" fill="none" xmlns="http://www.w3.org/2000/svg">
<path d="M2.40445 4.68956C3.74214 4.68956 4.8089 3.64927 4.8089 2.34478C4.8089 1.0568 3.74214 0 2.40445 0C1.0837 0 0 1.0568 0 2.34478C0 3.64927 1.0837 4.68956 2.40445 4.68956ZM10.3628 3.92999H33.3575C34.2719 3.92999 35 3.23646 35 2.34478C35 1.4531 34.2888 0.759577 33.3575 0.759577H10.3628C9.46541 0.759577 8.7373 1.4531 8.7373 2.34478C8.7373 3.23646 9.44848 3.92999 10.3628 3.92999ZM2.40445 14.8448C3.74214 14.8448 4.8089 13.8045 4.8089 12.5C4.8089 11.212 3.74214 10.1552 2.40445 10.1552C1.0837 10.1552 0 11.212 0 12.5C0 13.8045 1.0837 14.8448 2.40445 14.8448ZM10.3628 14.0852H33.3575C34.2719 14.0852 35 13.3917 35 12.5C35 11.6083 34.2888 10.9148 33.3575 10.9148H10.3628C9.46541 10.9148 8.7373 11.6083 8.7373 12.5C8.7373 13.3917 9.44848 14.0852 10.3628 14.0852ZM2.40445 25C3.74214 25 4.8089 23.9597 4.8089 22.6552C4.8089 21.3672 3.74214 20.3104 2.40445 20.3104C1.0837 20.3104 0 21.3672 0 22.6552C0 23.9597 1.0837 25 2.40445 25ZM10.3628 24.2404H33.3575C34.2719 24.2404 35 23.5469 35 22.6552C35 21.7635 34.2888 21.07 33.3575 21.07H10.3628C9.46541 21.07 8.7373 21.7635 8.7373 22.6552C8.7373 23.5469 9.44848 24.2404 10.3628 24.2404Z" fill="#1C1C1E"/>
</svg>
