<svg width="24" height="23" viewBox="0 0 24 23" fill="none" xmlns="http://www.w3.org/2000/svg">
<path d="M2.45508 12.9844H10.4971V21.0264C10.4971 21.8438 11.1694 22.5293 12 22.5293C12.8306 22.5293 13.5029 21.8438 13.5029 21.0264V12.9844H21.5449C22.3623 12.9844 23.0479 12.312 23.0479 11.4814C23.0479 10.6509 22.3623 9.97852 21.5449 9.97852H13.5029V1.93652C13.5029 1.11914 12.8306 0.433594 12 0.433594C11.1694 0.433594 10.4971 1.11914 10.4971 1.93652V9.97852H2.45508C1.6377 9.97852 0.952148 10.6509 0.952148 11.4814C0.952148 12.312 1.6377 12.9844 2.45508 12.9844Z" fill="#1C1C1E"/>
</svg>
