<svg width="16" height="15" viewBox="0 0 16 15" fill="none" xmlns="http://www.w3.org/2000/svg">
<path d="M1.18861 13.0508C0.819467 13.4199 0.801889 14.0791 1.1974 14.4658C1.58412 14.8525 2.2433 14.8438 2.61244 14.4746L7.99134 9.08692L13.379 14.4746C13.757 14.8525 14.4074 14.8525 14.7941 14.4658C15.172 14.0703 15.1808 13.4287 14.7941 13.0508L9.41517 7.6631L14.7941 2.28419C15.1808 1.90626 15.1808 1.25587 14.7941 0.86915C14.3986 0.49122 13.757 0.482431 13.379 0.860361L7.99134 6.24806L2.61244 0.860361C2.2433 0.49122 1.57533 0.473642 1.1974 0.86915C0.810678 1.25587 0.819467 1.91505 1.18861 2.28419L6.5763 7.6631L1.18861 13.0508Z" fill="white"/>
</svg>
